# xmcd
#
# Track frame offsets:
#	150
#	11776
#	25066
#	37543
#	51735
#	65688
#	78911
#	96544
#	111837
#	130963
#	143337
#	160691
#	179179
#	201021
#	215024
#	228448
#	244290
#	258818
#	274071
#	289604
#	300483
#	318464
#
# Disc length: 4255 seconds
#
# Revision: 1
# Processed by: cddbd v1.5.2PL0 Copyright (c) Steve Scherf et al.
# Submitted via: EZCDAudioConverter 2.1.7.1
#
DISCID=3d109d16
DTITLE=V/A - Titan: It's All Pop! 2/2
DYEAR=2008
DGENRE=
TTITLE0=Gary Charlson - Shark
TTITLE1=Boys - We're Dancing Again
TTITLE2=J.P. McClain and The Intruders - Baby Don't Laugh
TTITLE3=Arlis! - I Wanna Be
TTITLE4=Secrets - Radio Heart
TTITLE5=Boys - (Baby) It's You
TTITLE6=Millionaire At Midnight - Drink A Toast
TTITLE7=Bobby Sky - Rock N' Roll Song
TTITLE8=Secrets - Uniform
TTITLE9=Boys - Hold Me
TTITLE10=Gary Charlson - Burning In You
TTITLE11=Gems - Some
TTITLE12=Boys - Yesterdays Circles
TTITLE13=Secrets - Night School Girls
TTITLE14=Gems - Didn't Like It Anyway
TTITLE15=Arlis! - I'll Get You Back
TTITLE16=Scott McCarl - I Think About You
TTITLE17=Bobby Sky - Radio City
TTITLE18=Boys - You're Bad Too
TTITLE19=J.P. McClain and The Intruders - The Last Song (Dry Your Eyes)
TTITLE20=Gary Charlson - Goodbye Goodtimes
TTITLE21=The It's All Pop Goodtimes Chipmunks  - It's All Pop
EXTD=
EXTT0=
EXTT1=
EXTT2=
EXTT3=
EXTT4=
EXTT5=
EXTT6=
EXTT7=
EXTT8=
EXTT9=
EXTT10=
EXTT11=
EXTT12=
EXTT13=
EXTT14=
EXTT15=
EXTT16=
EXTT17=
EXTT18=
EXTT19=
EXTT20=
EXTT21=
PLAYORDER=
